<svg width="46" height="46" viewBox="0 0 46 46" fill="none" xmlns="http://www.w3.org/2000/svg">
<circle cx="22.9903" cy="22.9903" r="21.8317" fill="#FEFCE7" stroke="#5B3303" stroke-width="2.3172"/>
<path d="M19.2059 11.0946L19.2058 11.0946L9.93054 20.4346C9.93035 20.4348 9.93015 20.435 9.92996 20.4352C9.12988 21.2369 8.6895 22.3078 8.6895 23.445V23.53C8.6895 24.664 9.12737 25.7334 9.92367 26.5349C9.9237 26.5349 9.92372 26.5349 9.92375 26.5349L19.204 35.8788C20.0017 36.6849 21.0677 37.1319 22.2011 37.1319C23.3323 37.1319 24.3986 36.6856 25.1913 35.8858C25.9905 35.0824 26.4336 34.0117 26.4336 32.8746C26.4336 31.7398 25.9933 30.6703 25.1949 29.8649L25.1946 29.8646L23.1342 27.7889H32.7992C35.1383 27.7889 37.0185 25.8482 37.0185 23.4876V23.4875C37.0181 21.1286 35.1379 19.1878 32.799 19.1878H23.1319L25.1937 17.111C25.1939 17.1109 25.194 17.1107 25.1942 17.1105C25.9922 16.3088 26.4334 15.2373 26.4334 14.1028C26.4334 12.9683 25.9922 11.8969 25.1943 11.0947C23.5442 9.43229 20.8567 9.43246 19.2059 11.0946Z" fill="#5B3303" stroke="white" stroke-width="1.1586"/>
</svg>
