<svg width="46" height="46" viewBox="0 0 46 46" fill="none" xmlns="http://www.w3.org/2000/svg">
<circle cx="22.9903" cy="22.9903" r="21.8317" transform="matrix(-1 0 0 1 45.9805 0)" fill="#FEFCE7" stroke="#5B3303" stroke-width="2.3172"/>
<path d="M26.7746 11.0946L26.7746 11.0946L36.0499 20.4346C36.0501 20.4348 36.0503 20.435 36.0505 20.4352C36.8506 21.2369 37.291 22.3078 37.291 23.445V23.53C37.291 24.664 36.8531 25.7334 36.0568 26.5349C36.0568 26.5349 36.0567 26.5349 36.0567 26.5349L26.7764 35.8788C25.9787 36.6849 24.9128 37.1319 23.7793 37.1319C22.6482 37.1319 21.5819 36.6856 20.7891 35.8858C19.99 35.0824 19.5468 34.0117 19.5468 32.8746C19.5468 31.7398 19.9872 30.6703 20.7856 29.8649L20.7859 29.8646L22.8463 27.7889H13.1812C10.8422 27.7889 8.962 25.8482 8.962 23.4876V23.4875C8.96232 21.1286 10.8426 19.1878 13.1815 19.1878H22.8486L20.7868 17.111C20.7866 17.1109 20.7864 17.1107 20.7863 17.1105C19.9883 16.3088 19.5471 15.2373 19.5471 14.1028C19.5471 12.9683 19.9883 11.8969 20.7861 11.0947C22.4363 9.43229 25.1238 9.43246 26.7746 11.0946Z" fill="#5B3303" stroke="white" stroke-width="1.1586"/>
</svg>
