<svg width="356" height="408" viewBox="0 0 356 408" fill="none" xmlns="http://www.w3.org/2000/svg">
<rect x="1.5" y="1.5" width="353" height="405" rx="18.5" fill="#C65E4B" stroke="#4E2B00" stroke-width="3"/>
<rect x="1.5" y="1.5" width="35" height="34" rx="5.5" fill="#4E2B00" stroke="#4E2B00" stroke-width="3"/>
<rect x="1.5" y="372.5" width="35" height="34" rx="5.5" fill="#4E2B00" stroke="#4E2B00" stroke-width="3"/>
<rect x="319.5" y="1.5" width="35" height="34" rx="5.5" fill="#4E2B00" stroke="#4E2B00" stroke-width="3"/>
<rect x="319.5" y="372.5" width="35" height="34" rx="7.5" fill="#4E2B00" stroke="#4E2B00" stroke-width="3"/>
<rect x="17.5" y="15.5" width="320" height="373" rx="18.5" fill="#F2745D" stroke="#4E2B00" stroke-width="3" stroke-linejoin="round"/>
<ellipse cx="195" cy="212" rx="127" ry="117" fill="#C65E4B" fill-opacity="0.5"/>
<g clip-path="url(#clip0_653_3496)">
<path d="M300.857 106.249C283.258 115.929 269.822 124.823 260.838 131.13C244.806 142.383 236.046 150.228 220.778 152.393C217.17 152.908 216.76 152.596 200.68 152.08C175.583 151.277 163.039 150.871 160.009 151.547C136.183 156.848 123.237 179.092 112.123 197.268C107.598 204.674 105.115 210.601 107.293 214.625C110.106 219.841 120.191 220.864 127.817 218.015C141.326 212.96 139.582 198.545 153.171 191.765C164.164 186.286 176.266 190.243 180.935 191.765C197.538 197.184 195.689 206.441 209.913 210.821C225.865 215.724 246.035 209.231 252.183 214.693C252.657 215.107 253.951 216.257 254.176 218.015C254.618 221.405 250.744 224.474 249.346 225.633C246.55 227.958 243.737 228.828 241.985 229.302C234.367 231.348 227.777 230.866 225.206 230.714M225.206 230.714C210.556 229.834 201.106 231.069 201.106 230.866C201.106 230.561 223.719 230.705 225.206 230.714ZM225.206 230.714C239.751 230.807 243.399 231.153 244.123 233.25C244.999 235.786 241.093 239.396 234.463 245.526C232.486 247.352 230.317 249.127 227.223 249.761C224.9 250.235 223.036 249.863 222.345 249.736C213.256 248.053 197.08 249.609 197.08 249.541C197.08 249.448 225.945 246.684 227.255 252.34C227.946 255.333 220.915 260.642 214.663 262.485C212.204 263.212 210.13 263.322 206.401 263.516C199.515 263.888 194.605 262.984 194.597 263.102C194.589 263.204 197.948 264.108 202.391 263.981C205.678 263.888 206.908 263.305 207.334 263.981C208.185 265.326 204.875 270.06 200.889 272.622C195.063 276.375 188.336 275.141 185.146 274.279" stroke="#4E2B00" stroke-width="6" stroke-miterlimit="10"/>
<path d="M320.827 178.863C298.615 191.917 276.395 204.962 254.184 218.015" stroke="#4E2B00" stroke-width="6" stroke-miterlimit="10"/>
<path d="M33.3374 179.083C42.8601 180.494 50.872 181.222 56.7705 181.636C74.5301 182.87 80.067 181.67 84.5109 179.937C85.7725 179.446 87.1387 178.829 96.798 172.319C118.648 157.583 121.533 154.058 129.625 152.747C129.898 152.705 134.431 152.519 143.495 152.164C150.447 151.885 156.168 151.682 160.017 151.547" stroke="#4E2B00" stroke-width="6" stroke-miterlimit="10"/>
<path d="M38.1833 246.811C56.9475 248.129 75.7116 249.457 94.4758 250.776" stroke="#4E2B00" stroke-width="6" stroke-miterlimit="10"/>
<path d="M103.573 273.425C109.981 273.425 115.177 267.585 115.177 260.38C115.177 253.175 109.981 247.335 103.573 247.335C97.1638 247.335 91.9685 253.175 91.9685 260.38C91.9685 267.585 97.1638 273.425 103.573 273.425Z" stroke="#4E2B00" stroke-width="6" stroke-miterlimit="10"/>
<path d="M128.034 278.642C134.629 278.642 139.976 271.866 139.976 263.508C139.976 255.15 134.629 248.375 128.034 248.375C121.439 248.375 116.093 255.15 116.093 263.508C116.093 271.866 121.439 278.642 128.034 278.642Z" stroke="#4E2B00" stroke-width="6" stroke-miterlimit="10"/>
<path d="M151.065 282.235C157.443 282.235 162.613 275.455 162.613 267.093C162.613 258.73 157.443 251.951 151.065 251.951C144.688 251.951 139.518 258.73 139.518 267.093C139.518 275.455 144.688 282.235 151.065 282.235Z" stroke="#4E2B00" stroke-width="6" stroke-miterlimit="10"/>
<path d="M174.555 285.464C180.684 285.464 185.653 279.601 185.653 272.368C185.653 265.136 180.684 259.272 174.555 259.272C168.426 259.272 163.457 265.136 163.457 272.368C163.457 279.601 168.426 285.464 174.555 285.464Z" stroke="#4E2B00" stroke-width="6" stroke-miterlimit="10"/>
</g>
<defs>
<clipPath id="clip0_653_3496">
<rect width="289" height="184" fill="white" transform="translate(33 104)"/>
</clipPath>
</defs>
</svg>
