<svg width="356" height="408" viewBox="0 0 356 408" fill="none" xmlns="http://www.w3.org/2000/svg">
<rect x="1.5" y="1.5" width="353" height="405" rx="18.5" fill="#D99567" stroke="#4E2B00" stroke-width="3" stroke-linejoin="round"/>
<rect x="1.5" y="1.5" width="35" height="34" rx="5.5" fill="#4E2B00" stroke="#4E2B00" stroke-width="3"/>
<rect x="1.5" y="372.5" width="35" height="34" rx="5.5" fill="#4E2B00" stroke="#4E2B00" stroke-width="3"/>
<rect x="319.5" y="1.5" width="35" height="34" rx="5.5" fill="#4E2B00" stroke="#4E2B00" stroke-width="3"/>
<rect x="319.5" y="372.5" width="35" height="34" rx="7.5" fill="#4E2B00" stroke="#4E2B00" stroke-width="3"/>
<rect x="18.5" y="15.5" width="320" height="373" rx="18.5" fill="#FAAB76" stroke="#4E2B00" stroke-width="3" stroke-linejoin="round"/>
<g clip-path="url(#clip0_653_3389)">
<ellipse cx="40.9839" cy="382.986" rx="38.3441" ry="37.1011" fill="#D99567"/>
<ellipse cx="35.8714" cy="347.891" rx="38.3441" ry="37.1011" fill="#D99567"/>
<ellipse cx="253.344" cy="355.101" rx="38.3441" ry="37.1011" fill="#D99567"/>
<ellipse cx="348.759" cy="339.869" rx="38.3441" ry="37.1011" fill="#D99567"/>
<ellipse cx="177" cy="397" rx="68" ry="37" fill="#D99567"/>
<ellipse cx="301" cy="361.5" rx="49" ry="35.5" fill="#D99567"/>
<ellipse cx="84.9518" cy="379.978" rx="28.119" ry="27.0738" fill="#D99567"/>
<path d="M87.8021 141.943C88.4287 128.983 104.389 120.378 121.118 111.366C135.612 103.553 153.583 93.8649 179.415 94.2143C213.002 94.6684 235.146 111.75 245.29 119.563C255.091 127.12 263.863 134.095 264.218 144.167C264.655 156.474 252.277 165.743 242.263 173.253C233.739 179.646 213.57 194.306 183.21 195.621C150.26 197.054 127.502 181.812 115.821 173.999C102.095 164.812 87.1873 154.821 87.8021 141.931V141.943Z" stroke="#4E2B00" stroke-width="8" stroke-miterlimit="10"/>
<path d="M178 192.448C205.252 192.448 227.345 171.035 227.345 144.621C227.345 118.207 205.252 96.7939 178 96.7939C150.748 96.7939 128.655 118.207 128.655 144.621C128.655 171.035 150.748 192.448 178 192.448Z" fill="#4E2B00"/>
<path d="M206.112 220.82L248.839 303.2" stroke="#4E2B00" stroke-width="6" stroke-miterlimit="10"/>
<path d="M261.17 205.091L329.366 284.476" stroke="#4E2B00" stroke-width="6" stroke-miterlimit="10"/>
<path d="M292.4 175.128L335.948 185.618" stroke="#4E2B00" stroke-width="6" stroke-miterlimit="10"/>
<path d="M299.791 114.466L335.127 96.4912" stroke="#4E2B00" stroke-width="6" stroke-miterlimit="10"/>
<path d="M244.733 79.264L289.924 32.835" stroke="#4E2B00" stroke-width="6" stroke-miterlimit="10"/>
<path d="M210.218 71.0309L232.416 22.3447" stroke="#4E2B00" stroke-width="6" stroke-miterlimit="10"/>
<path d="M176.505 52.6885V33.9648" stroke="#4E2B00" stroke-width="6" stroke-miterlimit="10"/>
<path d="M118.195 68.786L100.117 23.0938" stroke="#4E2B00" stroke-width="6" stroke-miterlimit="10"/>
<path d="M68.0652 81.5097L33.563 42.5654" stroke="#4E2B00" stroke-width="6" stroke-miterlimit="10"/>
<path d="M52.4629 128.699L24.5173 115.963" stroke="#4E2B00" stroke-width="6" stroke-miterlimit="10"/>
<path d="M48.3442 179.631L23.6961 190.858" stroke="#4E2B00" stroke-width="6" stroke-miterlimit="10"/>
<path d="M19.5389 313.807C23.401 313.304 32.4467 312.649 41.6721 317.175C51.6417 322.052 58.1983 331.186 59.8663 340.202C61.8935 351.184 56.1581 359.277 59.1991 360.903C61.9962 362.388 66.1662 355.172 76.726 352.494C88.1327 349.605 98.192 354.248 99.7831 355.02C102.247 356.201 109.573 359.698 113.025 366.949C116.207 373.627 113.756 378.585 116.13 379.533C119.555 380.889 124.149 370.481 136.146 364.434C138.442 363.277 151.71 356.88 163.411 360.973C178.423 366.224 182.029 385.637 187.418 384.445C191.152 383.626 189.304 374.352 196.553 370.411C200.929 368.025 206.202 368.914 207.601 369.148C215.646 370.504 218.327 376.001 220.637 375.194C224.999 373.662 212.938 353.769 220.637 338.203C225.923 327.502 240.345 319.128 253.51 319.608C273.705 320.333 288.025 341.781 293.516 338.203C296.621 336.179 292.554 328.975 297.43 325.151C300.227 322.964 305.013 322.613 308.246 324.227C313.224 326.73 313.045 333.221 314.738 333.162C317.022 333.08 315.572 321.362 323.04 312.988C326.222 309.421 330.148 307.421 333.189 306.264" stroke="#4E2B00" stroke-width="6" stroke-miterlimit="10"/>
<path d="M155.148 226.363L127.472 325.583" stroke="#4E2B00" stroke-width="6" stroke-miterlimit="10"/>
<path d="M106.263 222.165L56.4404 272.605" stroke="#4E2B00" stroke-width="6" stroke-miterlimit="10"/>
<path d="M64.742 204.506L38.9135 223.007" stroke="#4E2B00" stroke-width="6" stroke-miterlimit="10"/>
<ellipse cx="183" cy="139.5" rx="32" ry="30.5" fill="#834A05"/>
<ellipse cx="200" cy="123.5" rx="10" ry="9.5" fill="#FAAB76"/>
</g>
<defs>
<clipPath id="clip0_653_3389">
<rect x="19" y="21" width="318" height="367" rx="20" fill="white"/>
</clipPath>
</defs>
</svg>
