<svg width="356" height="408" viewBox="0 0 356 408" fill="none" xmlns="http://www.w3.org/2000/svg">
<rect x="1.5" y="1.5" width="353" height="405" rx="18.5" fill="#025981" stroke="#4E2B00" stroke-width="3"/>
<rect x="1.5" y="1.5" width="35" height="34" rx="5.5" fill="#4E2B00" stroke="#4E2B00" stroke-width="3"/>
<rect x="1.5" y="372.5" width="35" height="34" rx="5.5" fill="#4E2B00" stroke="#4E2B00" stroke-width="3"/>
<rect x="319.5" y="1.5" width="35" height="34" rx="5.5" fill="#4E2B00" stroke="#4E2B00" stroke-width="3"/>
<rect x="319.5" y="372.5" width="35" height="34" rx="7.5" fill="#4E2B00" stroke="#4E2B00" stroke-width="3"/>
<rect x="18.5" y="15.5" width="320" height="373" rx="18.5" fill="#037BB2" stroke="#4E2B00" stroke-width="3" stroke-linejoin="round"/>
<rect x="99" y="103" width="145" height="143" rx="71.5" fill="#025981" fill-opacity="0.5"/>
<g clip-path="url(#clip0_653_3476)">
<path d="M195.93 198.22C196.45 197.7 200.59 199.96 203.66 203.63C211.41 212.9 208.34 226.51 207.87 228.9C207.1 232.79 206.21 237.35 202.46 240.93C195.69 247.39 185.06 245.51 179.6 244.54C175.55 243.82 160.01 240.9 155.54 230.1C150.26 217.36 162.91 199.7 163.33 199.87C163.71 200.03 160.32 217.97 147.72 227.09C140.29 232.47 125.55 237.77 114.63 229.5C104.13 221.54 103 205.43 108.61 196.41C116.12 184.34 136.34 183.95 136.07 182.53C135.76 180.85 109.05 190.13 97.78 178.96C90.68 171.93 89.69 156.81 97.18 147.08C104.5 137.56 116.66 137.44 118.24 137.45C132 137.54 142.99 148.42 143.1 148.26C143.23 148.07 122.58 139.48 121.25 126.62C120.27 117.18 129.7 105.42 141.55 103.32C153.8 101.15 163.13 110.28 164.31 111.47C174.11 121.39 174.16 136.83 174.88 136.7C175.56 136.58 170.64 124.01 175.99 115.19C181.05 106.85 194.07 103.84 204.26 106.17C217 109.07 228.44 121.02 227.14 130.84C225.68 141.86 208.38 148.54 208.73 149.09C209.03 149.58 219.59 140.19 232.92 139.33C244.66 138.57 261.84 144.21 264.42 156.71C266.49 166.68 258.59 177.8 249.38 181.98C234.05 188.93 213.63 177.34 213.68 177.17C213.76 176.94 256.31 184.09 259.6 201.23C261.39 210.56 251.2 220.97 242.15 225.29C230.18 231.02 214.25 228.94 208.46 221.08C206.19 218 206.93 216 202.52 208.54C198.8 202.25 195.38 198.76 195.92 198.22H195.93Z" stroke="#4E2B00" stroke-width="6" stroke-miterlimit="10"/>
<path d="M178.7 188.99C191.839 188.99 202.49 179.874 202.49 168.63C202.49 157.385 191.839 148.27 178.7 148.27C165.561 148.27 154.91 157.385 154.91 168.63C154.91 179.874 165.561 188.99 178.7 188.99Z" stroke="#4E2B00" stroke-width="6" stroke-miterlimit="10"/>
<path d="M167.27 240.37C164.31 256.72 161.99 276.55 162.02 299.1C162.04 318.99 163.87 336.68 166.32 351.62" stroke="#4E2B00" stroke-width="6" stroke-miterlimit="10"/>
<path d="M162.97 289.07C178.31 272.67 193.2 264.13 203.56 259.47C207.99 257.47 226.4 249.19 230.3 254.22C231.52 255.8 230.9 258.15 228.39 265.2C223.58 278.69 221.18 285.44 218.84 289.55C211.99 301.61 205.25 313.45 191.62 318.68C187.71 320.18 177.86 323.2 163.93 319.16" stroke="#4E2B00" stroke-width="6" stroke-miterlimit="10"/>
<path d="M161.54 304.83C157.3 305.8 150.24 306.75 142.44 304.35C131.51 301 125.45 293.31 118.09 282.39C109.87 270.18 96.66 250.58 103.29 242.28C105.5 239.52 109.11 239 112.84 238.46C123.05 236.99 131.29 242.35 137.67 246.58C143.52 250.45 153.62 258.36 162.02 272.84" stroke="#4E2B00" stroke-width="6" stroke-miterlimit="10"/>
<path d="M201.17 274.27C196.06 276.05 189.69 278.85 183.03 283.34C172.29 290.57 165.49 299 161.54 304.83" stroke="#4E2B00" stroke-width="6" stroke-miterlimit="10"/>
<path d="M163.93 294.8C158.6 286.62 151.72 277.42 142.92 268.06C137.2 261.98 131.54 256.75 126.21 252.3" stroke="#4E2B00" stroke-width="6" stroke-miterlimit="10"/>
<path d="M176.55 331.8L173.24 357.17" stroke="#4E2B00" stroke-width="6" stroke-miterlimit="10"/>
<path d="M155.04 341.18L162.76 357.72" stroke="#4E2B00" stroke-width="6" stroke-miterlimit="10"/>
<path d="M175.92 199.06V211.49" stroke="#4E2B00" stroke-width="3" stroke-miterlimit="10"/>
<path d="M184.56 200.09L189.05 210.11" stroke="#4E2B00" stroke-width="3" stroke-miterlimit="10"/>
<path d="M161.76 193.19L152.09 195.6" stroke="#4E2B00" stroke-width="3" stroke-miterlimit="10"/>
<path d="M153.82 186.28L143.8 188.35" stroke="#4E2B00" stroke-width="3" stroke-miterlimit="10"/>
<path d="M144.84 170.39H130.34" stroke="#4E2B00" stroke-width="3" stroke-miterlimit="10"/>
<path d="M158.31 147.25L153.47 141.38" stroke="#4E2B00" stroke-width="3" stroke-miterlimit="10"/>
<path d="M167.29 141.04L162.14 130.96" stroke="#4E2B00" stroke-width="3" stroke-miterlimit="10"/>
<path d="M190.77 139.66V132.4" stroke="#4E2B00" stroke-width="3" stroke-miterlimit="10"/>
<path d="M198.02 140.35L205.62 134.12" stroke="#4E2B00" stroke-width="3" stroke-miterlimit="10"/>
<path d="M213.57 164.18L216.33 157.61" stroke="#4E2B00" stroke-width="3" stroke-miterlimit="10"/>
<path d="M218.4 166.25H229.11" stroke="#4E2B00" stroke-width="3" stroke-miterlimit="10"/>
<path d="M208.39 184.55L216.33 189.39" stroke="#4E2B00" stroke-width="3" stroke-miterlimit="10"/>
<path d="M207 188.7L218.4 199.75" stroke="#4E2B00" stroke-width="3" stroke-miterlimit="10"/>
<g clip-path="url(#clip1_653_3476)">
<path d="M264.161 251.688L258.838 259.652L246.303 249.272L264.161 251.688Z" stroke="#4E2B00" stroke-width="4" stroke-miterlimit="10"/>
</g>
</g>
<g clip-path="url(#clip2_653_3476)">
<path d="M46.1893 191.047L47.8437 197.846L61.6469 191.917L46.1893 191.047Z" stroke="#4E2B00" stroke-width="4" stroke-miterlimit="10"/>
</g>
<g clip-path="url(#clip3_653_3476)">
<path d="M85.8512 315.268L89.3839 318.563L95.0995 309.908L85.8512 315.268Z" stroke="#4E2B00" stroke-width="4" stroke-miterlimit="10"/>
</g>
<g clip-path="url(#clip4_653_3476)">
<path d="M75.9347 125.547L77.5891 132.346L91.3922 126.417L75.9347 125.547Z" stroke="#4E2B00" stroke-width="4" stroke-miterlimit="10"/>
</g>
<g clip-path="url(#clip5_653_3476)">
<path d="M57.0483 93.0493L63.9079 86.3625L74.016 99.1178L57.0483 93.0493Z" stroke="#4E2B00" stroke-width="4" stroke-miterlimit="10"/>
</g>
<g clip-path="url(#clip6_653_3476)">
<path d="M143.094 65.4791L152.637 64.6473L152.384 80.9201L143.094 65.4791Z" stroke="#4E2B00" stroke-width="4" stroke-miterlimit="10"/>
</g>
<g clip-path="url(#clip7_653_3476)">
<path d="M260.711 75.8629L266.546 83.4602L252.692 92.0007L260.711 75.8629Z" stroke="#4E2B00" stroke-width="4" stroke-miterlimit="10"/>
</g>
<g clip-path="url(#clip8_653_3476)">
<path d="M204.539 51.3442L213.736 54.0241L207.608 69.1012L204.539 51.3442Z" stroke="#4E2B00" stroke-width="4" stroke-miterlimit="10"/>
</g>
<g clip-path="url(#clip9_653_3476)">
<path d="M299.371 179.808L298.808 186.725L286.711 184.328L299.371 179.808Z" stroke="#4E2B00" stroke-width="4" stroke-miterlimit="10"/>
</g>
<g clip-path="url(#clip10_653_3476)">
<path d="M27.5343 346.257C37.6302 337.54 47.1205 325.847 47.0487 311.761C47.0099 302.504 42.8393 295.36 45.1469 294.577C48.0957 293.572 59.9754 303.419 61.7659 315.181C63.201 324.629 57.2022 331.181 60.0899 332.735C63.8311 334.738 75.4042 325.041 77.6139 326.586C79.8844 328.164 67.1423 338.083 71.1156 345.594C73.4591 350.019 81.2347 352.875 87.7717 352.618C100.782 352.109 106.049 339.362 112.329 340.934C119.228 342.652 117.895 359.279 121.484 359.578C125.286 359.889 126.778 341.177 135.021 340.112C144.252 338.914 153.17 360.985 163.213 359.865C171.384 358.954 173.785 343.417 177.611 343.959C181.338 344.475 179.783 359.314 184.076 360.033C187.001 360.522 191.671 354.342 193.688 348.625C195.902 342.322 194.595 337.369 195.975 337.19C197.457 336.997 198.413 342.797 204.534 348.18C206.147 349.6 212.507 355.197 216.959 354.06C222.928 352.542 225.111 339.007 220.734 328.3C219.568 325.44 218.026 323.017 218.79 322.622C220.863 321.556 231.88 340.159 247.394 340.903C257.52 341.383 268.331 334.204 267.847 328.911C267.526 325.362 262.141 323.113 262.847 322.207C264.231 320.443 282.954 331.047 289.925 326.776C294.435 324.007 292.412 316.011 294.391 315.907C295.4 315.856 295.743 317.95 297.999 319.986C301.174 322.864 307.112 324.696 310.877 323.698C318.752 321.614 317.642 307.009 319.979 307.025C321.16 307.024 322.715 310.745 324.734 323.329" stroke="#4E2B00" stroke-width="6" stroke-miterlimit="10"/>
</g>
<defs>
<clipPath id="clip0_653_3476">
<rect width="178.75" height="262.13" fill="white" transform="translate(89 100)"/>
</clipPath>
<clipPath id="clip1_653_3476">
<rect width="13.6555" height="20.7782" fill="white" transform="translate(267.434 252.429) rotate(133.979)"/>
</clipPath>
<clipPath id="clip2_653_3476">
<rect width="9.87664" height="19.2008" fill="white" transform="matrix(0.448562 0.893752 0.893752 -0.448562 43.2546 191.112)"/>
</clipPath>
<clipPath id="clip3_653_3476">
<rect width="6.81895" height="13.2564" fill="white" transform="matrix(0.865732 0.500508 0.500508 -0.865732 84.1827 316.418)"/>
</clipPath>
<clipPath id="clip4_653_3476">
<rect width="9.87664" height="19.2008" fill="white" transform="matrix(0.448562 0.893752 0.893752 -0.448562 73 125.612)"/>
</clipPath>
<clipPath id="clip5_653_3476">
<rect width="13.6555" height="20.7782" fill="white" transform="translate(54 91.6455) rotate(-34.0464)"/>
</clipPath>
<clipPath id="clip6_653_3476">
<rect width="13.6555" height="20.7782" fill="white" transform="translate(141.624 62.4619) rotate(5.24076)"/>
</clipPath>
<clipPath id="clip7_653_3476">
<rect width="13.6555" height="20.7782" fill="white" transform="translate(262.463 73) rotate(62.6969)"/>
</clipPath>
<clipPath id="clip8_653_3476">
<rect width="13.6555" height="20.7782" fill="white" transform="translate(204.261 48) rotate(26.4682)"/>
</clipPath>
<clipPath id="clip9_653_3476">
<rect width="9.87664" height="15.7483" fill="white" transform="translate(301.802 179.171) rotate(105.357)"/>
</clipPath>
<clipPath id="clip10_653_3476">
<rect width="302" height="70" fill="white" transform="translate(28.0706 287) rotate(3.33371)"/>
</clipPath>
</defs>
</svg>
